# xmcd CD database file
# Copyright (C) 1993-1996 Ti Kan
#
# Track frame offsets:
#	180
#	11474
#	24649
#	37758
#	54627
#	65731
#	77809
#	87995
#	101546
#	113155
#
# Disc length: 1696 seconds
#
# Revision: 1
# Processed by: cddbd v1.4b41PL1 Copyright (c) Steve Scherf et al.
# Submitted via: CDValet v3.01 - Copyright (c) 1997 Greg Leichner
#
DISCID=76069e0a
DTITLE=Conway Twitty - Critique Country Classics Volume 4
DYEAR=1900
DGENRE=
TTITLE0=It's Only Make Believe
TTITLE1=After All The Good Is Gone
TTITLE2=Danny Boy
TTITLE3=Don't Cry Joni
TTITLE4=Hello Darlin'
TTITLE5=(Lying Here With) Linda On My Mind
TTITLE6=(I Can't Believe) She Gives It All To Me
TTITLE7=The Games That Daddies Play
TTITLE8=To See My Angel Cry
TTITLE9=You've Never Been This Far Before
EXTD=
EXTT0=
EXTT1=
EXTT2=
EXTT3=
EXTT4=
EXTT5=
EXTT6=
EXTT7=
EXTT8=
EXTT9=
PLAYORDER=
